<svg width="180" height="34" viewBox="0 0 180 34" fill="none" xmlns="http://www.w3.org/2000/svg">
<path d="M17.0359 33.4286C26.4446 33.4286 34.0718 25.9453 34.0718 16.7143C34.0718 7.48324 26.4446 0 17.0359 0C7.62723 0 0 7.48324 0 16.7143C0 25.9453 7.62723 33.4286 17.0359 33.4286Z" fill="#FCC74D"/>
<path d="M25.359 17.0488C25.359 22.3239 21.0008 26.5999 15.6242 26.5999C10.2477 26.5999 5.88943 22.3239 5.88943 17.0488" fill="#FFFBFB"/>
<path d="M20.4914 7.54541C23.1509 7.54541 25.3101 9.66383 25.3101 12.2732V17.0964H15.6726V12.2732C15.6726 9.66383 17.8318 7.54541 20.4914 7.54541Z" fill="#FFFBFB"/>
<path d="M30.1912 12.3066C30.1912 14.9437 28.0116 17.0822 25.3238 17.0822C22.636 17.0822 20.4564 14.9437 20.4564 12.3066" fill="#FFFBFB"/>
<path d="M55.7085 20.7842H52.603V26.4287H49.6636V12.0342H56.7241C57.7332 12.0537 58.508 12.1774 59.0483 12.4053C59.5952 12.6331 60.0575 12.9684 60.4351 13.4111C60.7476 13.7757 60.995 14.1794 61.1772 14.6221C61.3595 15.0648 61.4507 15.5693 61.4507 16.1357C61.4507 16.8193 61.2782 17.4932 60.9331 18.1572C60.5881 18.8148 60.0184 19.2803 59.2241 19.5537C59.8882 19.8206 60.3569 20.2015 60.6304 20.6963C60.9103 21.1846 61.0503 21.9333 61.0503 22.9424V23.9092C61.0503 24.5667 61.0763 25.0127 61.1284 25.2471C61.2065 25.6182 61.3888 25.8916 61.6753 26.0674V26.4287H58.3647C58.2736 26.1097 58.2085 25.8525 58.1694 25.6572C58.0913 25.2536 58.049 24.8402 58.0425 24.417L58.0229 23.0791C58.0099 22.1611 57.8407 21.5492 57.5151 21.2432C57.1961 20.9372 56.5939 20.7842 55.7085 20.7842ZM57.5347 18.167C58.1336 17.8936 58.4331 17.3532 58.4331 16.5459C58.4331 15.6735 58.1434 15.0876 57.564 14.7881C57.2384 14.6188 56.7502 14.5342 56.0991 14.5342H52.603V18.4014H56.0112C56.6883 18.4014 57.1961 18.3232 57.5347 18.167ZM70.4299 24.9248C70.4039 24.9574 70.3388 25.055 70.2346 25.2178C70.1304 25.3805 70.0067 25.5238 69.8635 25.6475C69.4273 26.0381 69.0041 26.305 68.594 26.4482C68.1903 26.5915 67.7151 26.6631 67.1682 26.6631C65.5927 26.6631 64.5315 26.0967 63.9846 24.9639C63.6786 24.3389 63.5256 23.4176 63.5256 22.2002V15.7842H66.3772V22.2002C66.3772 22.8057 66.4488 23.2614 66.592 23.5674C66.8459 24.1077 67.344 24.3779 68.0862 24.3779C69.0367 24.3779 69.6877 23.9938 70.0393 23.2256C70.2216 22.8089 70.3127 22.2588 70.3127 21.5752V15.7842H73.135V26.4287H70.4299V24.9248ZM81.3915 26.7119C80.5126 26.7119 79.8063 26.5361 79.2724 26.1846C78.9534 25.9762 78.6083 25.6117 78.2372 25.0908V26.4287H75.5126V12.0537H78.2861V17.1709C78.6376 16.6761 79.025 16.2985 79.4482 16.0381C79.9495 15.7126 80.5875 15.5498 81.3622 15.5498C82.762 15.5498 83.8557 16.0544 84.6435 17.0635C85.4378 18.0726 85.8349 19.3747 85.8349 20.9697C85.8349 22.6234 85.4443 23.9938 84.663 25.0811C83.8818 26.1683 82.7913 26.7119 81.3915 26.7119ZM82.915 21.2627C82.915 20.5075 82.8173 19.8825 82.622 19.3877C82.2509 18.4502 81.5673 17.9814 80.5712 17.9814C79.5621 17.9814 78.8688 18.4404 78.4912 19.3584C78.2958 19.8467 78.1982 20.4782 78.1982 21.2529C78.1982 22.1644 78.4 22.9196 78.8037 23.5186C79.2073 24.1175 79.8225 24.417 80.6494 24.417C81.3655 24.417 81.9221 24.1273 82.3193 23.5479C82.7164 22.9684 82.915 22.2067 82.915 21.2627ZM93.3981 26.7119C92.5192 26.7119 91.8128 26.5361 91.279 26.1846C90.96 25.9762 90.6149 25.6117 90.2438 25.0908V26.4287H87.5192V12.0537H90.2926V17.1709C90.6442 16.6761 91.0316 16.2985 91.4547 16.0381C91.956 15.7126 92.5941 15.5498 93.3688 15.5498C94.7685 15.5498 95.8623 16.0544 96.6501 17.0635C97.4443 18.0726 97.8415 19.3747 97.8415 20.9697C97.8415 22.6234 97.4508 23.9938 96.6696 25.0811C95.8883 26.1683 94.7978 26.7119 93.3981 26.7119ZM94.9215 21.2627C94.9215 20.5075 94.8239 19.8825 94.6286 19.3877C94.2575 18.4502 93.5739 17.9814 92.5778 17.9814C91.5687 17.9814 90.8753 18.4404 90.4977 19.3584C90.3024 19.8467 90.2047 20.4782 90.2047 21.2529C90.2047 22.1644 90.4066 22.9196 90.8102 23.5186C91.2139 24.1175 91.8291 24.417 92.6559 24.417C93.3721 24.417 93.9287 24.1273 94.3258 23.5479C94.723 22.9684 94.9215 22.2067 94.9215 21.2627ZM108.735 23.3037C108.663 23.9352 108.334 24.5765 107.748 25.2275C106.837 26.2627 105.561 26.7803 103.92 26.7803C102.566 26.7803 101.371 26.3441 100.336 25.4717C99.3012 24.5993 98.7836 23.18 98.7836 21.2139C98.7836 19.3714 99.2491 17.9587 100.18 16.9756C101.118 15.9925 102.332 15.501 103.823 15.501C104.708 15.501 105.506 15.667 106.215 15.999C106.925 16.3311 107.511 16.8551 107.973 17.5713C108.39 18.2028 108.66 18.9352 108.784 19.7686C108.855 20.2568 108.884 20.96 108.871 21.8779H101.586C101.625 22.9456 101.961 23.6943 102.592 24.124C102.976 24.391 103.439 24.5244 103.979 24.5244C104.552 24.5244 105.017 24.3617 105.375 24.0361C105.571 23.8604 105.743 23.6162 105.893 23.3037H108.735ZM105.981 20.042C105.935 19.3063 105.711 18.7497 105.307 18.3721C104.91 17.988 104.415 17.7959 103.823 17.7959C103.178 17.7959 102.677 17.9977 102.319 18.4014C101.967 18.805 101.746 19.3519 101.655 20.042H105.981ZM115.888 18.3525C114.768 18.3525 114.016 18.7171 113.632 19.4463C113.417 19.8564 113.31 20.488 113.31 21.3408V26.4287H110.507V15.7842H113.163V17.6396C113.593 16.93 113.967 16.445 114.286 16.1846C114.807 15.7484 115.484 15.5303 116.317 15.5303C116.37 15.5303 116.412 15.5335 116.444 15.54C116.483 15.54 116.565 15.5433 116.689 15.5498V18.4014C116.513 18.3818 116.357 18.3688 116.22 18.3623C116.083 18.3558 115.972 18.3525 115.888 18.3525ZM127.797 12.0537V26.4287H125.092V24.9541C124.694 25.5856 124.242 26.0446 123.734 26.3311C123.226 26.6175 122.595 26.7607 121.84 26.7607C120.596 26.7607 119.548 26.2594 118.695 25.2568C117.849 24.2477 117.426 22.9554 117.426 21.3799C117.426 19.5635 117.842 18.1344 118.676 17.0928C119.515 16.0511 120.635 15.5303 122.035 15.5303C122.68 15.5303 123.252 15.6735 123.754 15.96C124.255 16.2399 124.662 16.6305 124.974 17.1318V12.0537H127.797ZM120.297 21.1748C120.297 22.1579 120.492 22.9424 120.883 23.5283C121.267 24.1208 121.853 24.417 122.64 24.417C123.428 24.417 124.027 24.124 124.437 23.5381C124.847 22.9521 125.053 22.1937 125.053 21.2627C125.053 19.9606 124.724 19.0296 124.066 18.4697C123.663 18.1312 123.194 17.9619 122.66 17.9619C121.846 17.9619 121.247 18.2712 120.863 18.8896C120.486 19.5016 120.297 20.2633 120.297 21.1748ZM136.942 24.9248C136.916 24.9574 136.851 25.055 136.747 25.2178C136.642 25.3805 136.519 25.5238 136.376 25.6475C135.939 26.0381 135.516 26.305 135.106 26.4482C134.702 26.5915 134.227 26.6631 133.68 26.6631C132.105 26.6631 131.043 26.0967 130.497 24.9639C130.191 24.3389 130.038 23.4176 130.038 22.2002V15.7842H132.889V22.2002C132.889 22.8057 132.961 23.2614 133.104 23.5674C133.358 24.1077 133.856 24.3779 134.598 24.3779C135.549 24.3779 136.2 23.9938 136.551 23.2256C136.734 22.8089 136.825 22.2588 136.825 21.5752V15.7842H139.647V26.4287H136.942V24.9248ZM151.331 19.6025H148.48C148.428 19.2054 148.294 18.8473 148.079 18.5283C147.767 18.0986 147.282 17.8838 146.624 17.8838C145.687 17.8838 145.045 18.3493 144.7 19.2803C144.518 19.7751 144.427 20.4326 144.427 21.2529C144.427 22.0342 144.518 22.6624 144.7 23.1377C145.032 24.0231 145.657 24.4658 146.575 24.4658C147.226 24.4658 147.689 24.29 147.962 23.9385C148.236 23.5869 148.402 23.1312 148.46 22.5713H151.302C151.237 23.4176 150.931 24.2184 150.384 24.9736C149.512 26.1911 148.219 26.7998 146.507 26.7998C144.795 26.7998 143.535 26.292 142.728 25.2764C141.92 24.2607 141.517 22.9424 141.517 21.3213C141.517 19.4919 141.963 18.0693 142.855 17.0537C143.747 16.0381 144.977 15.5303 146.546 15.5303C147.881 15.5303 148.971 15.8298 149.818 16.4287C150.67 17.0277 151.175 18.0856 151.331 19.6025ZM162.801 26.4287H159.441L156.893 21.8779L155.74 23.0791V26.4287H153.006V12.083H155.74V19.8369L159.207 15.833H162.654L158.934 19.9053L162.801 26.4287Z" fill="#FCC74D"/>
</svg>
