<svg width="427" height="100" viewBox="0 0 427 100" fill="none" xmlns="http://www.w3.org/2000/svg">
<path d="M51.6746 100C80.2138 100 103.349 77.6142 103.349 50C103.349 22.3858 80.2138 0 51.6746 0C23.1355 0 0 22.3858 0 50C0 77.6142 23.1355 100 51.6746 100Z" fill="#FCC74D"/>
<path d="M76.921 50.999C76.921 66.779 63.7011 79.5705 47.3926 79.5705C31.0841 79.5705 17.8643 66.779 17.8643 50.999" fill="#FFFBFB"/>
<path d="M62.1566 22.5703C70.2237 22.5703 76.7731 28.9075 76.7731 36.7132V51.1417H47.54V36.7132C47.54 28.9075 54.0894 22.5703 62.1566 22.5703Z" fill="#FFFBFB"/>
<path d="M91.5792 36.8135C91.5792 44.702 84.9678 51.0992 76.815 51.0992C68.6622 51.0992 62.0508 44.702 62.0508 36.8135" fill="#FFFBFB"/>
<path d="M164.715 63V35H173.835C175.648 35 177.248 35.36 178.635 36.08C180.048 36.8 181.142 37.8 181.915 39.08C182.715 40.36 183.115 41.8267 183.115 43.48C183.115 45.1333 182.688 46.6 181.835 47.88C180.982 49.16 179.822 50.1733 178.355 50.92C176.888 51.64 175.235 52 173.395 52H168.115V63H164.715ZM180.515 63L173.795 51.52L176.475 49.76L184.235 63H180.515ZM168.115 48.88H174.315C175.328 48.88 176.235 48.6533 177.035 48.2C177.835 47.72 178.475 47.08 178.955 46.28C179.462 45.4533 179.715 44.52 179.715 43.48C179.715 41.88 179.155 40.5867 178.035 39.6C176.942 38.5867 175.515 38.08 173.755 38.08H168.115V48.88ZM206.114 63L205.914 59.32V43H209.114V63H206.114ZM191.874 53.24V43H195.074V53.24H191.874ZM195.074 53.24C195.074 55.2133 195.301 56.72 195.754 57.76C196.208 58.8 196.834 59.52 197.634 59.92C198.461 60.2933 199.381 60.48 200.394 60.48C202.128 60.48 203.474 59.8533 204.434 58.6C205.421 57.3467 205.914 55.6 205.914 53.36H207.474C207.474 55.4667 207.168 57.28 206.554 58.8C205.941 60.32 205.048 61.48 203.874 62.28C202.728 63.08 201.314 63.48 199.634 63.48C198.088 63.48 196.728 63.1733 195.554 62.56C194.381 61.92 193.474 60.92 192.834 59.56C192.194 58.1733 191.874 56.3867 191.874 54.2V53.24H195.074ZM218.259 63V35H221.459V59.28L221.299 63H218.259ZM228.219 63.48C226.539 63.48 225.059 63.04 223.779 62.16C222.526 61.28 221.552 60.0533 220.859 58.48C220.166 56.88 219.819 55.0533 219.819 53C219.819 50.92 220.166 49.0933 220.859 47.52C221.552 45.9467 222.526 44.72 223.779 43.84C225.059 42.96 226.539 42.52 228.219 42.52C230.006 42.52 231.579 42.96 232.939 43.84C234.299 44.72 235.352 45.9467 236.099 47.52C236.872 49.0933 237.259 50.92 237.259 53C237.259 55.0533 236.872 56.88 236.099 58.48C235.352 60.0533 234.299 61.28 232.939 62.16C231.579 63.04 230.006 63.48 228.219 63.48ZM227.499 60.56C228.752 60.56 229.859 60.24 230.819 59.6C231.806 58.96 232.579 58.0667 233.139 56.92C233.726 55.7733 234.019 54.4667 234.019 53C234.019 51.5333 233.739 50.2267 233.179 49.08C232.646 47.9333 231.886 47.04 230.899 46.4C229.912 45.76 228.792 45.44 227.539 45.44C226.366 45.44 225.312 45.76 224.379 46.4C223.472 47.04 222.752 47.9333 222.219 49.08C221.712 50.2267 221.459 51.5333 221.459 53C221.459 54.4667 221.712 55.7733 222.219 56.92C222.752 58.0667 223.472 58.96 224.379 59.6C225.286 60.24 226.326 60.56 227.499 60.56ZM245.256 63V35H248.456V59.28L248.296 63H245.256ZM255.216 63.48C253.536 63.48 252.056 63.04 250.776 62.16C249.523 61.28 248.55 60.0533 247.856 58.48C247.163 56.88 246.816 55.0533 246.816 53C246.816 50.92 247.163 49.0933 247.856 47.52C248.55 45.9467 249.523 44.72 250.776 43.84C252.056 42.96 253.536 42.52 255.216 42.52C257.003 42.52 258.576 42.96 259.936 43.84C261.296 44.72 262.35 45.9467 263.096 47.52C263.87 49.0933 264.256 50.92 264.256 53C264.256 55.0533 263.87 56.88 263.096 58.48C262.35 60.0533 261.296 61.28 259.936 62.16C258.576 63.04 257.003 63.48 255.216 63.48ZM254.496 60.56C255.75 60.56 256.856 60.24 257.816 59.6C258.803 58.96 259.576 58.0667 260.136 56.92C260.723 55.7733 261.016 54.4667 261.016 53C261.016 51.5333 260.736 50.2267 260.176 49.08C259.643 47.9333 258.883 47.04 257.896 46.4C256.91 45.76 255.79 45.44 254.536 45.44C253.363 45.44 252.31 45.76 251.376 46.4C250.47 47.04 249.75 47.9333 249.216 49.08C248.71 50.2267 248.456 51.5333 248.456 53C248.456 54.4667 248.71 55.7733 249.216 56.92C249.75 58.0667 250.47 58.96 251.376 59.6C252.283 60.24 253.323 60.56 254.496 60.56ZM281.014 63.48C279.067 63.48 277.347 63.04 275.854 62.16C274.361 61.2533 273.187 60.0133 272.334 58.44C271.507 56.8667 271.094 55.0533 271.094 53C271.094 50.9467 271.507 49.1333 272.334 47.56C273.187 45.9867 274.347 44.76 275.814 43.88C277.307 42.9733 279.014 42.52 280.934 42.52C282.801 42.52 284.414 42.9867 285.774 43.92C287.134 44.8267 288.187 46.1067 288.934 47.76C289.681 49.4133 290.054 51.36 290.054 53.6H273.534L274.334 52.92C274.334 54.52 274.614 55.8933 275.174 57.04C275.761 58.1867 276.574 59.0667 277.614 59.68C278.654 60.2667 279.841 60.56 281.174 60.56C282.587 60.56 283.774 60.2267 284.734 59.56C285.721 58.8933 286.481 58.0133 287.014 56.92L289.774 58.32C289.267 59.36 288.587 60.2667 287.734 61.04C286.907 61.8133 285.921 62.4133 284.774 62.84C283.654 63.2667 282.401 63.48 281.014 63.48ZM274.534 51.56L273.694 50.92H287.494L286.654 51.6C286.654 50.32 286.401 49.2133 285.894 48.28C285.387 47.3467 284.707 46.6267 283.854 46.12C283.001 45.6133 282.014 45.36 280.894 45.36C279.801 45.36 278.761 45.6133 277.774 46.12C276.814 46.6267 276.027 47.3467 275.414 48.28C274.827 49.1867 274.534 50.28 274.534 51.56ZM299.41 52.16C299.41 50 299.823 48.2533 300.65 46.92C301.476 45.56 302.53 44.56 303.81 43.92C305.116 43.2533 306.49 42.92 307.93 42.92V45.92C306.756 45.92 305.623 46.12 304.53 46.52C303.463 46.8933 302.583 47.52 301.89 48.4C301.196 49.28 300.85 50.48 300.85 52L299.41 52.16ZM297.65 63V43H300.85V63H297.65ZM329.525 63L329.365 59.28V35H332.565V63H329.525ZM322.605 63.48C320.819 63.48 319.245 63.04 317.885 62.16C316.525 61.28 315.459 60.0533 314.685 58.48C313.939 56.88 313.565 55.0533 313.565 53C313.565 50.92 313.939 49.0933 314.685 47.52C315.459 45.9467 316.525 44.72 317.885 43.84C319.245 42.96 320.819 42.52 322.605 42.52C324.285 42.52 325.752 42.96 327.005 43.84C328.285 44.72 329.272 45.9467 329.965 47.52C330.659 49.0933 331.005 50.92 331.005 53C331.005 55.0533 330.659 56.88 329.965 58.48C329.272 60.0533 328.285 61.28 327.005 62.16C325.752 63.04 324.285 63.48 322.605 63.48ZM323.325 60.56C324.499 60.56 325.539 60.24 326.445 59.6C327.352 58.96 328.059 58.0667 328.565 56.92C329.099 55.7733 329.365 54.4667 329.365 53C329.365 51.5333 329.099 50.2267 328.565 49.08C328.059 47.9333 327.352 47.04 326.445 46.4C325.539 45.76 324.485 45.44 323.285 45.44C322.032 45.44 320.912 45.76 319.925 46.4C318.965 47.04 318.205 47.9333 317.645 49.08C317.085 50.2267 316.805 51.5333 316.805 53C316.805 54.4667 317.085 55.7733 317.645 56.92C318.205 58.0667 318.979 58.96 319.965 59.6C320.952 60.24 322.072 60.56 323.325 60.56ZM355.443 63L355.243 59.32V43H358.443V63H355.443ZM341.203 53.24V43H344.403V53.24H341.203ZM344.403 53.24C344.403 55.2133 344.63 56.72 345.083 57.76C345.536 58.8 346.163 59.52 346.963 59.92C347.79 60.2933 348.71 60.48 349.723 60.48C351.456 60.48 352.803 59.8533 353.763 58.6C354.75 57.3467 355.243 55.6 355.243 53.36H356.803C356.803 55.4667 356.496 57.28 355.883 58.8C355.27 60.32 354.376 61.48 353.203 62.28C352.056 63.08 350.643 63.48 348.963 63.48C347.416 63.48 346.056 63.1733 344.883 62.56C343.71 61.92 342.803 60.92 342.163 59.56C341.523 58.1733 341.203 56.3867 341.203 54.2V53.24H344.403ZM376.508 63.48C374.534 63.48 372.788 63.04 371.268 62.16C369.748 61.2533 368.561 60.0133 367.708 58.44C366.854 56.8667 366.428 55.0533 366.428 53C366.428 50.9467 366.841 49.1333 367.668 47.56C368.521 45.9867 369.708 44.76 371.228 43.88C372.748 42.9733 374.481 42.52 376.428 42.52C378.348 42.52 380.068 42.96 381.588 43.84C383.108 44.72 384.268 45.96 385.068 47.56L382.148 48.88C381.614 47.8133 380.841 46.9867 379.828 46.4C378.814 45.7867 377.654 45.48 376.348 45.48C375.041 45.48 373.881 45.8 372.868 46.44C371.881 47.08 371.094 47.9733 370.508 49.12C369.948 50.24 369.668 51.5333 369.668 53C369.668 54.4667 369.948 55.7733 370.508 56.92C371.094 58.04 371.894 58.92 372.908 59.56C373.948 60.2 375.121 60.52 376.428 60.52C377.734 60.52 378.894 60.1867 379.908 59.52C380.948 58.8533 381.734 57.92 382.268 56.72L385.188 58.04C384.388 59.7467 383.228 61.08 381.708 62.04C380.188 63 378.454 63.48 376.508 63.48ZM395.908 56.56L393.868 54.36L404.508 43H408.548L395.908 56.56ZM392.788 63V35H395.988V63H392.788ZM405.388 63L397.788 51.52L399.868 49.28L409.348 63H405.388Z" fill="#FCC74D"/>
<rect x="130.995" width="2" height="100" fill="#FCC74D"/>
</svg>
